<svg xmlns:dc="http://purl.org/dc/elements/1.1/" xmlns:cc="http://creativecommons.org/ns#" xmlns:rdf="http://www.w3.org/1999/02/22-rdf-syntax-ns#" xmlns:svg="http://www.w3.org/2000/svg" xmlns="http://www.w3.org/2000/svg" xmlns:sodipodi="http://sodipodi.sourceforge.net/DTD/sodipodi-0.dtd" xmlns:inkscape="http://www.inkscape.org/namespaces/inkscape" width="1000" height="872.87488" viewBox="0 0 264.58332 230.94816" version="1.1" id="svg8" inkscape:version="0.92.4 (5da689c313, 2019-01-14)" sodipodi:docname="A.svg">
  <defs id="defs2"/>
  <sodipodi:namedview id="base" pagecolor="#ffffff" bordercolor="#666666" borderopacity="1.0" inkscape:pageopacity="0.0" inkscape:pageshadow="2" inkscape:zoom="0.175" inkscape:cx="1292.0825" inkscape:cy="333.20379" inkscape:document-units="px" inkscape:current-layer="layer1" showgrid="false" units="px" inkscape:window-width="1920" inkscape:window-height="1017" inkscape:window-x="1912" inkscape:window-y="-8" inkscape:window-maximized="1" fit-margin-top="0" fit-margin-left="0" fit-margin-right="0" fit-margin-bottom="0">
    <inkscape:grid type="xygrid" id="grid823" originx="-66.971031" originy="195.86492"/>
  </sodipodi:namedview>
  <metadata id="metadata5">
    <rdf:RDF>
      <cc:Work rdf:about="">
        <dc:format>image/svg+xml</dc:format>
        <dc:type rdf:resource="http://purl.org/dc/dcmitype/StillImage"/>
        <dc:title/>
      </cc:Work>
    </rdf:RDF>
  </metadata>
  <g inkscape:label="Layer 1" inkscape:groupmode="layer" id="layer1" transform="translate(-66.970994,-261.91674)">
    <g id="g80302" transform="matrix(1.3212521,0,0,1.3212521,480.52565,-75.040147)" style="fill:#26272b">
      <path inkscape:connector-curvature="0" id="path825" d="m -299.03612,399.58105 c -6.88566,0 -13.96596,5.51768 -13.96596,15.17562 0,8.82926 6.22524,15.06562 13.96596,15.06562 6.38958,0 9.23732,-4.28876 9.23732,-4.28876 v 1.86946 c 0,0.8836 0.83542,1.86946 1.86946,1.86946 h 4.61866 v -29.03158 h -6.48812 v 3.68394 c 0,0 -2.8716,-4.34376 -9.23732,-4.34376 z m 1.15574,5.93636 c 5.66836,0 8.64172,4.9851 8.64172,9.2371 0,4.73604 -3.5303,9.23388 -8.6297,9.2339 -4.26278,0 -8.53284,-3.45238 -8.53284,-9.2964 0,-5.27526 3.67466,-9.1746 8.52082,-9.1746 z" style="opacity:1;fill:#26272b;fill-opacity:1;stroke:none;stroke-width:0.01099682;stroke-linecap:square;stroke-linejoin:round;stroke-miterlimit:2.61310005;stroke-dasharray:none;stroke-opacity:1"/>
      <path sodipodi:nodetypes="ccccccccccccccc" inkscape:connector-curvature="0" id="path829" d="m -274.2933,429.27247 c -0.99682,0 -1.86946,-0.71498 -1.86946,-1.86946 v -27.16212 h 6.48812 v 3.59262 c 1.47022,-2.20986 4.34254,-4.26128 8.75132,-4.26128 7.2059,0 11.04296,5.74422 11.04296,11.11564 v 18.5846 h -4.5087 c -1.18224,0 -1.97942,-0.9897 -1.97942,-1.97942 v -15.1756 c 0,-2.97738 -1.82422,-6.59332 -6.04314,-6.59332 -4.55234,0 -7.26302,4.30228 -7.26302,8.3528 v 15.39554 z" style="opacity:1;fill:#26272b;fill-opacity:1;stroke:none;stroke-width:0.01099682;stroke-linecap:square;stroke-linejoin:round;stroke-miterlimit:2.61310005;stroke-dasharray:none;stroke-opacity:1"/>
      <path sodipodi:nodetypes="ssscssccccssscss" inkscape:connector-curvature="0" style="opacity:1;fill:#26272b;fill-opacity:1;stroke:none;stroke-width:0.01099682;stroke-linecap:square;stroke-linejoin:round;stroke-miterlimit:2.61310005;stroke-dasharray:none;stroke-opacity:1" d="m -230.96586,399.58105 c -6.88564,0 -13.96594,5.51768 -13.96594,15.17562 0,8.82926 6.22524,15.06562 13.96594,15.06562 6.38958,0 9.23734,-4.28876 9.23734,-4.28876 v 1.86946 c 0,0.8836 0.83542,1.86946 1.86946,1.86946 h 4.61866 v -43.54736 h -6.48812 v 18.1997 c 0,0 -2.87162,-4.34374 -9.23734,-4.34374 z m 1.15576,5.93636 c 5.66836,0 8.64172,4.9851 8.64172,9.2371 0,4.73604 -3.53032,9.23388 -8.6297,9.2339 -4.26278,0 -8.53284,-3.45238 -8.53284,-9.2964 0,-5.27528 3.67464,-9.1746 8.52082,-9.1746 z" id="path833"/>
      <path style="opacity:1;fill:#26272b;fill-opacity:1;stroke:none;stroke-width:0.01099682;stroke-linecap:square;stroke-linejoin:round;stroke-miterlimit:2.61310005;stroke-dasharray:none;stroke-opacity:1" d="m -206.22302,429.27247 c -0.99682,0 -1.86946,-0.71498 -1.86946,-1.86946 v -27.16212 h 6.48812 v 4.8386 c 1.11676,-2.7106 3.52662,-5.1685 7.80774,-5.1685 1.19346,0 2.30934,0.21994 2.30934,0.21994 v 6.70804 c 0,0 -1.39338,-0.54984 -3.07912,-0.54984 -4.55234,0 -7.03796,4.30228 -7.03796,8.35282 v 14.63052 z" id="path835" inkscape:connector-curvature="0" sodipodi:nodetypes="cccccccccccc"/>
      <path sodipodi:nodetypes="cccccc" inkscape:connector-curvature="0" id="path837" d="m -152.1187,429.27247 c -0.99682,0 -1.86946,-0.71498 -1.86946,-1.86946 v -27.16212 h 6.48812 v 29.03158 z" style="opacity:1;fill:#26272b;fill-opacity:1;stroke:none;stroke-width:0.01099682;stroke-linecap:square;stroke-linejoin:round;stroke-miterlimit:2.61310005;stroke-dasharray:none;stroke-opacity:1"/>
      <path id="path839" d="m -128.47554,399.58105 c -6.88566,0 -13.96596,5.51768 -13.96596,15.17562 0,8.82926 6.22524,15.06562 13.96596,15.06562 6.38956,0 9.23731,-4.28876 9.23731,-4.28876 v 1.86946 c 0,0.8836 0.83542,1.86946 1.86946,1.86946 h 4.61866 v -43.54736 h -6.48812 v 18.1997 c 0,0 -2.87159,-4.34374 -9.23731,-4.34374 z m 1.15574,5.93636 c 5.66836,0 8.64171,4.9851 8.64171,9.2371 0,4.73604 -3.53029,9.23388 -8.62969,9.2339 -4.26278,0 -8.53284,-3.45238 -8.53284,-9.2964 0,-5.27528 3.67466,-9.1746 8.52082,-9.1746 z" style="opacity:1;fill:#26272b;fill-opacity:1;stroke:none;stroke-width:0.01099682;stroke-linecap:square;stroke-linejoin:round;stroke-miterlimit:2.61310005;stroke-dasharray:none;stroke-opacity:1" inkscape:connector-curvature="0" sodipodi:nodetypes="ssscssccccssscss"/>
      <circle r="4.2912617" cy="389.68787" cx="-150.79517" id="path841" style="opacity:1;fill:#26272b;fill-opacity:1;stroke:none;stroke-width:0.01384278;stroke-linecap:square;stroke-linejoin:round;stroke-miterlimit:2.61310005;stroke-dasharray:none;stroke-opacity:1"/>
      <path inkscape:connector-curvature="0" id="path843" d="m -174.3765,399.57139 c -7.21114,0 -15.13372,5.38276 -15.13372,15.13372 0,8.88566 6.74818,15.11826 15.11804,15.11826 10.315,0 15.35172,-8.29218 15.35172,-15.06198 0,-8.30724 -6.48568,-15.19 -15.33604,-15.19 z m 0.0236,6.059 c 4.9867,0 8.70638,4.01914 8.70638,9.09298 0,5.16184 -3.94862,9.14498 -8.69156,9.14498 -4.40284,0 -8.68276,-3.583 -8.68276,-9.0582 0,-5.56646 4.07064,-9.17976 8.66794,-9.17976 z" style="opacity:1;fill:#26272b;fill-opacity:1;stroke:none;stroke-width:0.01099682;stroke-linecap:square;stroke-linejoin:round;stroke-miterlimit:2.61310005;stroke-dasharray:none;stroke-opacity:1"/>
    </g>
    <path id="path80319" d="m 263.83714,306.59003 21.93313,-37.99441 c 1.2377,-2.12998 0.48933,-4.83565 -1.61189,-6.07335 -2.1012,-1.23768 -4.83565,-0.5181 -6.04456,1.61189 l -22.22097,38.48374 c -16.95357,-7.74281 -36.03711,-12.06035 -56.55987,-12.06035 -20.52274,0 -39.60629,4.31754 -56.55986,12.06035 l -22.22097,-38.48374 c -1.2377,-2.12999 -3.94336,-2.84957 -6.07335,-1.61189 -2.13,1.2377 -2.84959,3.94337 -1.61189,6.07335 l 21.93314,37.99441 C 96.978343,327.084 71.360891,365.36624 67.129701,410.18238 H 331.53627 C 327.30507,365.36624 301.68761,327.084 263.83714,306.59003 Z m -125.20887,66.46144 c -6.13092,0 -11.0817,-4.97957 -11.0817,-11.08169 0,-6.13093 4.97957,-11.0817 11.0817,-11.0817 6.13092,0 11.08171,4.97956 11.08171,11.0817 0.0289,6.10212 -4.95079,11.08169 -11.08171,11.08169 z m 121.38064,0 c -6.13091,0 -11.08172,-4.97957 -11.08172,-11.08169 0,-6.13093 4.97958,-11.0817 11.08172,-11.0817 6.13093,0 11.0817,4.97956 11.0817,11.0817 0.0288,6.10212 -4.95077,11.08169 -11.0817,11.08169 z" class="st0" inkscape:connector-curvature="0" style="fill:#26272b;stroke-width:0.28783643"/>
  </g>
  <style id="style80315" type="text/css">
	.st0{fill:#26272b;}
</style>
</svg>